<svg id="visual" viewBox="0 0 900 600" width="900" height="600" xmlns="http://www.w3.org/2000/svg" xmlns:xlink="http://www.w3.org/1999/xlink" version="1.1"><rect x="0" y="0" width="900" height="600" fill="#2F2E41"></rect><defs><linearGradient id="grad1_0" x1="33.3%" y1="100%" x2="100%" y2="0%"><stop offset="20%" stop-color="#2F2E41" stop-opacity="1"></stop><stop offset="80%" stop-color="#2F2E41" stop-opacity="1"></stop></linearGradient></defs><defs><linearGradient id="grad2_0" x1="0%" y1="100%" x2="66.7%" y2="0%"><stop offset="20%" stop-color="#2F2E41" stop-opacity="1"></stop><stop offset="80%" stop-color="#2F2E41" stop-opacity="1"></stop></linearGradient></defs><g transform="translate(900, 600)"><path d="M-378.6 0C-344.1 -51.6 -309.6 -103.3 -282.3 -163C-255.1 -222.7 -235.1 -290.6 -189.3 -327.9C-143.5 -365.1 -71.7 -371.9 0 -378.6L0 0Z" fill="#db0243"></path></g><g transform="translate(0, 0)"><path d="M378.6 0C371.1 70.3 363.5 140.7 327.9 189.3C292.2 237.9 228.3 264.8 169 292.7C109.7 320.6 54.8 349.6 0 378.6L0 0Z" fill="#db0243"></path></g></svg>