<svg id="visual" viewBox="0 0 900 600" width="900" height="600" xmlns="http://www.w3.org/2000/svg" xmlns:xlink="http://www.w3.org/1999/xlink" version="1.1"><path d="M0 139L82 223L164 121L245 133L327 139L409 151L491 121L573 133L655 235L736 223L818 121L900 151L900 0L818 0L736 0L655 0L573 0L491 0L409 0L327 0L245 0L164 0L82 0L0 0Z" fill="#0b6623"></path><path d="M0 193L82 307L164 169L245 217L327 211L409 211L491 181L573 181L655 319L736 271L818 175L900 253L900 149L818 119L736 221L655 233L573 131L491 119L409 149L327 137L245 131L164 119L82 221L0 137Z" fill="#016e3a"></path><path d="M0 385L82 391L164 355L245 373L327 403L409 355L491 463L573 385L655 403L736 385L818 415L900 409L900 251L818 173L736 269L655 317L573 179L491 179L409 209L327 209L245 215L164 167L82 305L0 191Z" fill="#00754e"></path><path d="M0 511L82 529L164 523L245 535L327 481L409 475L491 547L573 481L655 481L736 517L818 499L900 541L900 407L818 413L736 383L655 401L573 383L491 461L409 353L327 401L245 371L164 353L82 389L0 383Z" fill="#007c61"></path><path d="M0 601L82 601L164 601L245 601L327 601L409 601L491 601L573 601L655 601L736 601L818 601L900 601L900 539L818 497L736 515L655 479L573 479L491 545L409 473L327 479L245 533L164 521L82 527L0 509Z" fill="#038373"></path></svg>